<?xml version="1.0" encoding="utf-8"?>
<!-- Generator: Adobe Illustrator 16.0.0, SVG Export Plug-In . SVG Version: 6.00 Build 0)  -->
<!DOCTYPE svg PUBLIC "-//W3C//DTD SVG 1.1//EN" "http://www.w3.org/Graphics/SVG/1.1/DTD/svg11.dtd">
<svg version="1.1" id="Layer_1" xmlns="http://www.w3.org/2000/svg" xmlns:xlink="http://www.w3.org/1999/xlink" x="0px" y="0px"
	 width="253.59px" height="147.007px" viewBox="0 0 253.59 147.007" enable-background="new 0 0 253.59 147.007"
	 xml:space="preserve">
<g>
	<defs>
		<rect id="SVGID_1_" width="253.589" height="192.757"/>
	</defs>
	<clipPath id="SVGID_2_">
		<use xlink:href="#SVGID_1_"  overflow="visible"/>
	</clipPath>
	<path clip-path="url(#SVGID_2_)" fill="#5C63AD" d="M13.016,41.423c6.888,3.326,18.993,4.094,25.487-0.274
		c4.438-2.999,3.282-7.335-0.12-10.373c-3.368-2.971-8.124-3.993-11.492-6.964c-1.833-1.632-3.341-3.598-1.489-5.706
		c3.069-2.133,6.789,0.811,7.031,5.325c0.023,1.397,4.29,0.273,4.901-0.405c4.63-4.85-3.928-8.259-6.98-9.056
		c-8.877-2.269-19.984,5.095-7.994,12.842c3.046,1.943,6.607,3.213,9.303,5.356c1.569,1.271,3.336,3.807,1.859,5.332
		c-7.193,7.418-20.632,0.077-19.754-8.728c-0.131-1.469,0.269-2.854,0.486-4.316c0,0-0.021-0.486-0.116-0.63
		c-0.344-0.361-0.977-0.1-1.405,0.095C4.776,27.789,5.239,37.684,13.016,41.423"/>
	<path clip-path="url(#SVGID_2_)" fill="#5C63AD" d="M24.456,49.991c-0.952-1.917-3.059-2.855-4.617-2.133
		c-1.593,0.714-2.086,2.829-1.129,4.712c0.988,1.914,3.053,2.856,4.651,2.134C24.92,53.986,25.442,51.871,24.456,49.991"/>
	<path clip-path="url(#SVGID_2_)" fill="#5C63AD" d="M30.66,54.937c1.6-0.718,2.078-2.829,1.091-4.713
		c-0.952-1.918-3.019-2.854-4.61-2.135c-1.605,0.713-2.086,2.83-1.128,4.71C26.994,54.716,29.064,55.651,30.66,54.937"/>
	<path clip-path="url(#SVGID_2_)" fill="#5C63AD" d="M64.161,32.711c1.51,2.978,4.346,3.942,7.292,3.756h0.003l13.892,0.443h0.008
		h0.005c0.113,0.001,0.228-0.004,0.339-0.013c5.793-0.16,10.735-2.122,16.204-4.002c0.565-0.156,1.132-0.316,1.695-0.471
		c0.677,4.073,9.355,5.885,14.58,5.523l0.152-4.952c-3.609,0.378-6.376,0.391-10.062-1.259c-0.066-0.04-0.137-0.112-0.166-0.215
		c1.65-0.228,3.295-0.318,5.009-0.195c1.01,0,2.49-1.56,0.379-4.315c-4.986-6.06-12.392-12.787-20.464-13.916
		c-3.735-0.154-9.08,0.97-8.82,5.969c0.474,2.668,2.414,4.23,5.484,4.504c0.311,0.044,0.975,0.136,0.48-0.789
		c-0.44-1.691-0.137-3.423,0.888-4.892c0.766-1.132,2.633-1.35,4.151-0.813c4.112,1.526,7.254,5.957,9.451,9.485
		c0.297,0.498-1.187,1.042-1.4,1.107c-3.317,0.975-11.812,4.372-17.756,4.29L71.61,31.512h-0.006
		c-0.113-0.002-0.224,0.004-0.335,0.012c-6.127,0.157-8.437-13.22-10.177-17.907c-1.405-3.012-5.629,3.453-5.639,5.897
		c0.071,4.226,6.82,8.632,5.527,11.002c-0.526,3.263-10.564,4.482-11.23,3.45c-1.195-0.842-1.299-2.032-2.11-2.898
		c-2.306-2.129-3.551,5.02-1.589,7.072C51.008,42.801,62.316,39.109,64.161,32.711"/>
	<path clip-path="url(#SVGID_2_)" fill="#5C63AD" d="M130.182,14.4c1.6-0.717,2.09-2.832,1.095-4.714
		c-0.95-1.914-3.017-2.853-4.615-2.133c-1.593,0.713-2.084,2.829-1.124,4.709C126.525,14.179,128.587,15.119,130.182,14.4"/>
	<path clip-path="url(#SVGID_2_)" fill="#5C63AD" d="M122.89,14.17c1.562-0.719,2.078-2.831,1.091-4.712
		c-0.952-1.919-3.054-2.858-4.615-2.136c-1.599,0.713-2.087,2.831-1.133,4.711C119.225,13.947,121.288,14.887,122.89,14.17"/>
	<path clip-path="url(#SVGID_2_)" fill="#5C63AD" d="M128.453,29.057c-0.104-3.146-1.444-7.066-0.629-9.795
		c0.11-0.276,0.783-0.431,1.146-0.803c1.013-1.122-5.078-4.037-7.457-0.828c-1.498,1.975,0.542,9.442,0.866,12.385
		c-0.414,1.944-2.188,2.761-4.044,2.979l-0.157,4.952c2.377-0.025,5.025-0.712,7.12-1.829
		C127.679,34.828,128.798,31.58,128.453,29.057"/>
	<path clip-path="url(#SVGID_2_)" fill="#5C63AD" d="M5.015,56.251c1.459-0.729,1.89-2.755,0.896-4.513
		c-0.968-1.796-2.994-2.623-4.452-1.895c-1.501,0.732-1.899,2.761-0.934,4.517C1.523,56.15,3.518,56.982,5.015,56.251"/>
	<path clip-path="url(#SVGID_2_)" fill="#5C63AD" d="M11.961,56.251c1.499-0.729,1.894-2.755,0.898-4.513
		c-0.965-1.796-2.961-2.623-4.453-1.895c-1.501,0.732-1.9,2.761-0.93,4.517C8.467,56.15,10.467,56.982,11.961,56.251"/>
	<path clip-path="url(#SVGID_2_)" fill="#5C63AD" d="M13.791,80.559c10.102-3.851,5.449-13.749,0.197-18.297
		c-1.629-1.793-7.111-5.476-9.94-1.56c0.465,0.795,1.135,1.627,1.4,2.653c-0.601,2.593-3.126,4.089-4.291,6.511
		C-2.701,78.198,7.373,83.014,13.791,80.559 M6.209,72.258c0.234-2.591,2.126-4.486,2.427-7.107
		c0.101-0.796,1.296,0.166,1.497,0.433c1.597,2.224,4.29,5.578,3.754,8.594c-0.3,1.631-1.197,2.991-3.056,3.061
		C8.006,77.373,5.911,74.944,6.209,72.258"/>
	<path clip-path="url(#SVGID_2_)" fill="#5C63AD" d="M24.724,78.364c4.092,0.667,9.208,0.434,13.166-0.165
		c1.696-0.267,2.793-1.096,2.956-2.558c0.035-0.43-0.495-1.524-1.226-1.424c-1.968,0.297-3.857,0.961-5.984,0.331
		c-2.594-0.833-4.82-5.349-1.695-6.912c1.326-0.658,2.327,2.927,3.756,3.327c1.361,0.527,3.324-1.565,2.991-2.725
		c-1.961-6.706-13.264-4.746-13.663,1.758c-0.463,2.093,1.229,3.452,1.826,5.084c-1.132,0.131-2.023-0.433-2.789-0.197
		c-0.602,0.165-0.932,1.025-0.796,1.656C23.393,77.336,23.929,78.101,24.724,78.364"/>
	<path clip-path="url(#SVGID_2_)" fill="#5C63AD" d="M48.129,79.862c-0.067,0.396,0.562,0.961,0.931,0.759
		c7.545-2.82,5.186-7.269,4.585-13.811c-0.563-6.376-1.756-12.617-2.224-19.224c-0.035-0.297,0.435-0.697,0.832-0.831
		c0.267-0.064,0.267-0.529,0.133-0.698c-0.497-0.462-1.23-0.795-1.995-1.061c-3.33-1.163-5.585,0.599-5.555,3.952
		c1.2,8.001,2.332,15.739,3.693,24.071C48.995,75.908,49.161,78.632,48.129,79.862"/>
	<path clip-path="url(#SVGID_2_)" fill="#5C63AD" d="M96.832,52.769c1.463-0.735,1.892-2.759,0.892-4.552
		c-0.959-1.757-2.988-2.622-4.449-1.894c-1.498,0.733-1.894,2.759-0.937,4.549C93.344,52.634,95.333,53.496,96.832,52.769"/>
	<path clip-path="url(#SVGID_2_)" fill="#5C63AD" d="M89.618,52.769c1.492-0.735,1.924-2.759,0.929-4.552
		c-0.965-1.757-2.993-2.622-4.452-1.894c-1.497,0.733-1.896,2.759-0.93,4.549C86.159,52.634,88.155,53.496,89.618,52.769"/>
	<path clip-path="url(#SVGID_2_)" fill="#5C63AD" d="M71.93,78.799h0.002h13.227h0.005c7.08,0.432,8.705-1.426,12.296-2.392
		c3.388,1.929,4.519,2.258,9.276,2.392c3.426-0.201,8.679-0.567,9.839-4.649c1.429-4.95-3.423-22.014-2.824-27.061
		c-0.037-0.302,0.433-0.697,0.797-0.829c0.299-0.1,0.265-0.532,0.096-0.698c-0.494-0.498-1.225-0.831-1.991-1.063
		c-3.391-1.095-5.551,0.565-5.42,3.95c0.306,1.628,3.525,19.292,3.461,19.292c0.632,3.155,0.864,6.21-3.958,6.341
		c-1.561,0.233-3.694,0.097-4.823-1.194c-0.5-0.532,0.304-1.496,0.7-2.126c3.556-7.506-2.924-14.044-9.338-14.543
		C82.8,55.922,81.241,68.108,89.483,72.356c0.301,0.199,0.932,0.697,0.701,1.195c-1.794,0.599-3.325,0.497-5.02,0.531h-0.005H71.932
		H71.93h-0.002c-0.109,0-0.218,0.011-0.327,0.025c-2.596,0.128-4.554-2.316-6.087-5.468c-0.399-1.03-0.73-2.159-1.03-3.456
		c-0.197-1.226-1.133-4.28,0.762-4.249c0.435,0.066,0.497-0.363,0.336-0.598c-1.731-2.558-5.752-1.992-7.313,0.434
		c-1.465,2.255,1.393,12.283,2.259,16.334c0.563,2.656,1.334,7.738-2.792,7.707c-1.164,0-2.059-0.904-3.124-1.036
		c-0.264-0.029-0.2,0.368,0,0.6c2.425,4.117,8.376,5.676,11.266,1.03c1.062-1.893,1.166-4.745,0.831-7.836
		C68.176,78.665,70.033,78.997,71.93,78.799 M91.913,60.636c4.982-1.261,6.51,6.774,3.948,9.762c-0.397,0.466-1.261,0.3-1.69-0.102
		C91.913,68.108,87.553,63.458,91.913,60.636"/>
	<path clip-path="url(#SVGID_2_)" fill="#5C63AD" d="M126.386,79.862c-0.072,0.396,0.563,0.961,0.927,0.759
		c7.543-2.82,5.187-7.269,4.588-13.811c-0.563-6.376-1.76-12.617-2.229-19.224c-0.031-0.297,0.432-0.697,0.831-0.831
		c0.265-0.064,0.265-0.529,0.132-0.698c-0.494-0.462-1.226-0.795-1.993-1.061c-3.325-1.163-5.585,0.599-5.554,3.952
		c1.197,8.001,2.332,15.739,3.693,24.071C127.245,75.908,127.412,78.632,126.386,79.862"/>
	<path clip-path="url(#SVGID_2_)" fill="#5C63AD" d="M71.716,104.826c-0.355-1.046-0.633-2.188-0.87-3.493
		c-0.145-1.237-0.932-4.333,0.957-4.212c0.428,0.086,0.513-0.343,0.362-0.583c-1.611-2.634-5.655-2.254-7.326,0.094
		c-1.563,2.188,0.826,12.333,1.498,16.42c0.45,2.68,0.975,7.793-3.142,7.566c-1.162-0.05-2.02-0.988-3.075-1.17
		c-0.259-0.045-0.212,0.358-0.025,0.596c2.234,4.229,8.103,6.062,11.205,1.55c1.155-1.842,1.389-4.688,1.195-7.787
		c1.415,1.164,3.256,1.58,5.157,1.467l0.216-4.712C75.097,110.802,73.157,108.187,71.716,104.826"/>
	<path clip-path="url(#SVGID_2_)" fill="#5C63AD" d="M97.708,109.056c0.559-0.544,1.185-1.148,1.781-1.817h-0.036
		c2.417-2.581,4.57-5.939,3.873-10.357c-0.538-3.417-4.679-5.967-8.685-4.955c-0.373,0.084-1.448,0.333-1.785,0.45
		c-3.759,1.42-7.912,1.229-12.444,2.884c-2.372,0.852-2.256,6.274-1.012,6.768c3.819,1.568,7.929,3.355,10.865,6.086
		c-3.326,1.404-8.4,2.571-12.394,2.448l-0.214,4.712c6.508,0.266,9.523-0.96,16.108-3.047c3.503,3.52,9.204,4.679,14.003,4.437
		l0.224-4.71C103.247,112.363,99.81,111.143,97.708,109.056 M93.934,105.788c-2.368-2.767-4.56-5.13-8.027-7.02
		c2.215-0.396,3.566-1.627,5.951-2.115c1.515-0.3,3.753-0.563,4.604,1.272C97.701,100.608,96.313,104.005,93.934,105.788"/>
	<path clip-path="url(#SVGID_2_)" fill="#5C63AD" d="M116.244,87.735c-0.018-0.299,0.467-0.677,0.837-0.792
		c0.302-0.085,0.29-0.516,0.128-0.692c-0.467-0.52-1.187-0.885-1.943-1.157c-3.332-1.25-5.567,0.316-5.592,3.703
		c0.223,1.635,2.632,17.008,2.561,17.003c0.486,3.18,0.578,6.242-4.24,6.152l-0.221,4.71c3.429-0.038,8.695-0.163,10.041-4.19
		C119.473,107.598,115.416,92.749,116.244,87.735"/>
	<path clip-path="url(#SVGID_2_)" fill="#5C63AD" d="M133.465,105.852c-0.27-6.396-1.173-10.26-1.341-16.888
		c-0.014-0.295,0.465-0.672,0.871-0.787c0.27-0.053,0.291-0.518,0.165-0.692c-0.47-0.487-1.192-0.848-1.941-1.15
		c-3.268-1.319-5.605,0.336-5.729,3.688c0.823,8.052,1.597,13.406,2.574,21.793c0.334,2.906,0.369,5.636-0.712,6.813
		c-0.089,0.398,0.517,0.991,0.892,0.808C135.91,116.963,133.758,112.412,133.465,105.852"/>
	<path clip-path="url(#SVGID_2_)" fill="#5C63AD" d="M44.05,106.682c-7.628,0.25-13.286-9.208-15.267-15.311
		c-1.524-4.613-8.468,3.514-5.63,9.09c1.328,2.582,7.534,7.949,4.501,11.606c-1.354,1.633-4.066,2.517-7.24,2.128
		c-7.473-0.958-11.45-5.534-11.45-12.77c-0.025-1.588,0.551-3.037,0.537-4.696c-1.18-3.326-10.012,5.014-7.307,12.232
		c3.42,9.088,21.419,11.133,28.963,8.101c2.517-1.012,4.946-3.325,4.454-7.086c1.972,1.205,4.832,1.781,7.936,1.767L44.05,106.682z"
		/>
	<path clip-path="url(#SVGID_2_)" fill="#5C63AD" d="M13.726,123.069c-1.686,0.625-2.328,2.755-1.482,4.752
		c0.878,2.03,2.934,3.133,4.617,2.507c1.652-0.625,2.331-2.757,1.445-4.749C17.463,123.551,15.375,122.443,13.726,123.069"/>
	<path clip-path="url(#SVGID_2_)" fill="#5C63AD" d="M21.185,123.809c-1.685,0.628-2.331,2.76-1.479,4.751
		c0.878,2.034,2.929,3.134,4.613,2.511c1.688-0.624,2.328-2.756,1.447-4.752C24.923,124.291,22.871,123.187,21.185,123.809"/>
	<path clip-path="url(#SVGID_2_)" fill="#5C63AD" d="M46.533,115.457c-1.652,0.631-2.328,2.759-1.451,4.754
		c0.846,2.028,2.935,3.136,4.576,2.543c1.687-0.624,2.334-2.756,1.489-4.784C50.267,115.975,48.216,114.833,46.533,115.457"/>
	<path clip-path="url(#SVGID_2_)" fill="#5C63AD" d="M48.372,91.163c-1.665,1.919-0.101,9.711,0.031,12.748
		c-0.556,1.958-2.429,2.674-4.35,2.772l-0.5,5.061c2.435,0.134,5.186-0.389,7.416-1.389c2.528-1.153,3.898-4.4,3.729-7.009
		c0.104-3.235-1.002-7.336,0.032-10.078c0.134-0.275,0.827-0.382,1.223-0.742C57.07,91.45,51.036,88.038,48.372,91.163"/>
	<path clip-path="url(#SVGID_2_)" fill="#FCB442" d="M239.589,134.456l-0.205-0.047l-3.139-1.076c-0.01,0-0.01,0-0.019-0.005
		c-0.051-0.011-0.098-0.019-0.15-0.032c-0.354-0.104-0.662-0.315-0.902-0.606c0,0-0.008-0.006-0.005-0.006
		c-0.033-0.034-0.066-0.075-0.084-0.114l-1.568-2.024c-0.198-0.27-0.313-0.614-0.313-1.019l-0.014-0.745
		c-0.002-0.056-0.012,1.091-0.012,1.032c-0.005-0.063,0.01-0.11,0.012-0.171c0.063-0.531,0.418-0.994,0.875-1.123
		c0.052-0.012,0.101-0.024,0.147-0.028c0.052-0.008,0.092-0.008,0.143-0.002l2.319,0.13l0.001-0.01
		c1.234-0.161,2.222-1.44,2.217-2.878l-0.106-13.582c-0.001-1.496-1.015-2.7-2.283-2.7h-9.152c-1.441,0-2.619,1.327-2.583,2.959
		l0.263,14.404c0.029,1.57,1.043,3.225,2.448,3.041v0.019l2.602-0.846c0.048-0.012,0.095-0.025,0.15-0.033
		c0.049-0.008,0.096-0.008,0.146-0.008c0.509,0.021,0.906,0.429,0.947,1.002v0.079v0.078l0.007-0.449v0.096v0.092
		c-0.014,0.357-0.114,0.696-0.286,0.993c-0.022,0.052-0.054,0.099-0.088,0.142l-1.561,2.505c-0.271,0.451-0.644,0.827-1.079,1.091
		c-0.036,0.022-0.065,0.04-0.1,0.05l-3.166,1.81l-0.252,0.141c-0.376,0.271-0.632,0.733-0.624,1.221
		c0.004,0.229,0.07,0.438,0.178,0.604l0.075,0.092c-0.005,0-0.005,0.005,0.006,0.007l2.001,2.692
		c0.037,0.04,0.063,0.078,0.088,0.121c0.231,0.32,0.369,0.714,0.405,1.161c0.006,0.063,0.013,0.134,0.015,0.195
		c0,0.008-0.002,0.014-0.009,0.028l-0.034,3.185l0.006,0.137v0.012c0.063,0.581,0.542,0.926,1.111,0.785
		c0.09-0.022,0.182-0.053,0.264-0.101c0,0,0.004,0,0.011-0.003l0.061-0.038l3.357-1.385c0.038-0.024,0.078-0.044,0.121-0.067
		c0.187-0.098,0.383-0.172,0.587-0.218c0.196-0.05,0.393-0.072,0.58-0.061c0.038,0,0.073,0,0.117,0.007l3.643,1.358l0.06,0.002
		l0.004,0.003c0.085,0.002,0.166-0.01,0.246-0.03c0.506-0.126,0.922-0.666,0.968-1.233v-0.013l0.006-0.132l-0.585-4.529v-0.002
		c0-0.051,0-0.109,0.009-0.167c0.019-0.445,0.148-0.891,0.34-1.284c0.021-0.03,0.031-0.055,0.049-0.081l2.083-2.808
		c-0.005-0.005-0.005-0.005,0-0.01l0.044-0.08c0-0.007,0-0.007,0.002-0.011c0.088-0.185,0.137-0.39,0.133-0.606
		C240.117,134.93,239.904,134.577,239.589,134.456"/>
	<path clip-path="url(#SVGID_2_)" fill-rule="evenodd" clip-rule="evenodd" fill="#393E96" d="M170.252,117.493
		c-2.763,0.197-5.896-65.88-5.84-70.476c0.133-11.592-3.908-32.121,5.757-38.38c-18.89-0.792-12.335,25.434-12.502,41.694
		C157.481,67.735,152.926,118.361,170.252,117.493"/>
	<path clip-path="url(#SVGID_2_)" fill="#393E96" d="M253.59,25.325c0.033-17.229-7.003-12.656-21.389-15.268
		c-10.721-1.945-21.451-3.878-32.17-5.84c-6.324-1.159-28.12-9.372-28.333,0.853c-0.331,15.448,1.739,24.099,0.981,58.809
		c-0.57,26.288-3.635,54.384,1.153,59.198c4.867,4.893,41.832-0.509,53.895-0.509c12.064,0,26.934,1.342,25.777-16.404
		C252.212,86.251,253.558,44.244,253.59,25.325 M219.535,58.301c-1.046,0.846,0.36,31.619,0.36,31.619
		c0,3.336-2.634,6.81-5.976,6.81c-3.343,0-6.58-1.403-6.58-4.738c0,0,0.631-31.426,0.176-33.691
		c-0.33-1.637-6.792-6.36-6.792-11.681c0-7.492,5.164-12.572,12.668-12.572c7.503,0,12.806,6.125,12.806,13.62
		C226.197,52.989,220.44,57.562,219.535,58.301"/>
	<path clip-path="url(#SVGID_2_)" fill="#F5F6F5" d="M213.393,34.047c-7.507,0-12.668,5.081-12.668,12.573
		c0,5.322,6.461,10.044,6.791,11.68c0.455,2.265-0.177,33.691-0.177,33.691c0,3.335,3.239,4.739,6.58,4.739
		c3.343,0,5.978-3.475,5.978-6.811c0,0-1.406-30.772-0.36-31.619c0.905-0.738,6.661-5.311,6.661-10.632
		C226.197,40.172,220.894,34.047,213.393,34.047"/>
</g>
</svg>
